<?xml version="1.0" encoding="UTF-8" standalone="no"?>
<!-- Created with Inkscape (http://www.inkscape.org/) -->

<svg
   xmlns:dc="http://purl.org/dc/elements/1.1/"
   xmlns:cc="http://creativecommons.org/ns#"
   xmlns:rdf="http://www.w3.org/1999/02/22-rdf-syntax-ns#"
   xmlns:svg="http://www.w3.org/2000/svg"
   xmlns="http://www.w3.org/2000/svg"
   xmlns:xlink="http://www.w3.org/1999/xlink"
   xmlns:sodipodi="http://sodipodi.sourceforge.net/DTD/sodipodi-0.dtd"
   xmlns:inkscape="http://www.inkscape.org/namespaces/inkscape"
   width="303.77954"
   height="303.77954"
   viewBox="0 0 80.375003 80.375005"
   version="1.1"
   id="svg1768"
   inkscape:version="0.92.2 5c3e80d, 2017-08-06"
   sodipodi:docname="ellipsis-clock.svg"
   inkscape:export-filename="/opt/dev/ellipsis-fitbit-clockface/ellipsis-clock.png"
   inkscape:export-xdpi="94.809998"
   inkscape:export-ydpi="94.809998">
  <defs
     id="defs1762">
    <linearGradient
       id="linearGradient2891">
      <stop
         style="stop-color:#4c4c4c;stop-opacity:1"
         offset="0"
         id="stop2887" />
      <stop
         style="stop-color:#6d6d6d;stop-opacity:1"
         offset="1"
         id="stop2889" />
    </linearGradient>
    <linearGradient
       id="linearGradient2757">
      <stop
         style="stop-color:#bf1111;stop-opacity:1"
         offset="0"
         id="stop2753" />
      <stop
         id="stop2755"
         offset="1"
         style="stop-color:#f03800;stop-opacity:1;" />
    </linearGradient>
    <linearGradient
       id="linearGradient2751">
      <stop
         style="stop-color:#ce6c0e;stop-opacity:1"
         offset="0"
         id="stop2747" />
      <stop
         style="stop-color:#ff9b39;stop-opacity:1"
         offset="1"
         id="stop2749" />
    </linearGradient>
    <linearGradient
       id="linearGradient2325">
      <stop
         style="stop-color:#0f64cd;stop-opacity:1"
         offset="0"
         id="stop2321" />
      <stop
         style="stop-color:#3992ff;stop-opacity:1"
         offset="1"
         id="stop2323" />
    </linearGradient>
    <linearGradient
       id="linearGradient2281">
      <stop
         style="stop-color:#7906a8;stop-opacity:1"
         offset="0"
         id="stop2277" />
      <stop
         style="stop-color:#b70cfe;stop-opacity:1"
         offset="1"
         id="stop2279" />
    </linearGradient>
    <linearGradient
       id="linearGradient2259">
      <stop
         style="stop-color:#c5a50d;stop-opacity:1"
         offset="0"
         id="stop2255" />
      <stop
         id="stop2257"
         offset="1"
         style="stop-color:#ffdb32;stop-opacity:1" />
    </linearGradient>
    <linearGradient
       id="linearGradient2253">
      <stop
         style="stop-color:#0e8a1e;stop-opacity:1"
         offset="0"
         id="stop2249" />
      <stop
         id="stop2251"
         offset="1"
         style="stop-color:#00c122;stop-opacity:1" />
    </linearGradient>
    <linearGradient
       id="linearGradient3920">
      <stop
         style="stop-color:#cc1212;stop-opacity:1;"
         offset="0"
         id="stop2244" />
      <stop
         id="stop2246"
         offset="1"
         style="stop-color:#f03800;stop-opacity:1;" />
    </linearGradient>
    <linearGradient
       id="linearGradient2242">
      <stop
         style="stop-color:#1b780a;stop-opacity:1"
         offset="0"
         id="stop2238" />
      <stop
         style="stop-color:#0ec600;stop-opacity:1"
         offset="1"
         id="stop2240" />
    </linearGradient>
    <linearGradient
       id="linearGradient3914">
      <stop
         style="stop-color:#414141;stop-opacity:1;"
         offset="0"
         id="stop2207" />
      <stop
         style="stop-color:#2d2d2d;stop-opacity:1;"
         offset="1"
         id="stop2209" />
    </linearGradient>
    <linearGradient
       id="linearGradient3914-7">
      <stop
         id="stop3916"
         offset="0"
         style="stop-color:#414141;stop-opacity:1;" />
      <stop
         id="stop3918"
         offset="1"
         style="stop-color:#2d2d2d;stop-opacity:1;" />
    </linearGradient>
    <linearGradient
       id="linearGradient3920-1">
      <stop
         id="stop3922"
         offset="0"
         style="stop-color:#cc1212;stop-opacity:1;" />
      <stop
         style="stop-color:#f03800;stop-opacity:1;"
         offset="1"
         id="stop3924" />
    </linearGradient>
    <linearGradient
       inkscape:collect="always"
       xlink:href="#linearGradient2891"
       id="linearGradient1687"
       gradientUnits="userSpaceOnUse"
       gradientTransform="matrix(0.18738137,0,0,0.18271684,-898.87242,-3047.3429)"
       x1="5841.4121"
       y1="17785.342"
       x2="5756.3281"
       y2="17684.988" />
    <linearGradient
       inkscape:collect="always"
       xlink:href="#linearGradient2751"
       id="linearGradient1689"
       gradientUnits="userSpaceOnUse"
       gradientTransform="matrix(0.18738137,0,0,0.18271684,-1262.9652,-3447.5222)"
       x1="5749.4722"
       y1="17870.559"
       x2="5849.4722"
       y2="17986.029" />
    <linearGradient
       inkscape:collect="always"
       xlink:href="#linearGradient2325"
       id="linearGradient1691"
       gradientUnits="userSpaceOnUse"
       gradientTransform="matrix(0.18738137,0,0,0.18271684,-1251.3768,-3424.9221)"
       x1="5749.4722"
       y1="17870.559"
       x2="5849.4722"
       y2="17986.029" />
    <linearGradient
       inkscape:collect="always"
       xlink:href="#linearGradient2281"
       id="linearGradient1931"
       gradientUnits="userSpaceOnUse"
       gradientTransform="matrix(0.18738137,0,0,0.18271684,-1239.7884,-3402.3221)"
       x1="5749.4727"
       y1="17870.559"
       x2="5849.4727"
       y2="17986.029" />
    <linearGradient
       inkscape:collect="always"
       xlink:href="#linearGradient2757"
       id="linearGradient1933"
       gradientUnits="userSpaceOnUse"
       gradientTransform="matrix(0.18738137,0,0,0.18271684,-994.61472,-3115.1431)"
       x1="5841.4121"
       y1="17785.342"
       x2="5756.3281"
       y2="17684.988" />
    <linearGradient
       inkscape:collect="always"
       xlink:href="#linearGradient2259"
       id="linearGradient1937"
       gradientUnits="userSpaceOnUse"
       gradientTransform="matrix(0.18738137,0,0,0.18271684,-1219.4626,-3402.3221)"
       x1="5749.4722"
       y1="17870.559"
       x2="5849.4722"
       y2="17986.029" />
    <linearGradient
       inkscape:collect="always"
       xlink:href="#linearGradient2253"
       id="linearGradient2226"
       x1="-121.26371"
       y1="-137.07007"
       x2="-101.46725"
       y2="-115.97175"
       gradientUnits="userSpaceOnUse"
       gradientTransform="translate(-1.0583333)" />
  </defs>
  <sodipodi:namedview
     id="base"
     pagecolor="#ffffff"
     bordercolor="#666666"
     borderopacity="1.0"
     inkscape:pageopacity="0.0"
     inkscape:pageshadow="2"
     inkscape:zoom="0.9899495"
     inkscape:cx="183.17939"
     inkscape:cy="65.266163"
     inkscape:document-units="mm"
     inkscape:current-layer="layer1"
     showgrid="false"
     fit-margin-top="0"
     fit-margin-left="0"
     fit-margin-right="0"
     fit-margin-bottom="0"
     inkscape:window-width="1440"
     inkscape:window-height="855"
     inkscape:window-x="0"
     inkscape:window-y="1"
     inkscape:window-maximized="1"
     units="px" />
  <metadata
     id="metadata1765">
    <rdf:RDF>
      <cc:Work
         rdf:about="">
        <dc:format>image/svg+xml</dc:format>
        <dc:type
           rdf:resource="http://purl.org/dc/dcmitype/StillImage" />
        <dc:title />
      </cc:Work>
    </rdf:RDF>
  </metadata>
  <g
     inkscape:label="Layer 1"
     inkscape:groupmode="layer"
     id="layer1"
     transform="translate(177.91379,-11.22642)">
    <g
       style="stroke:#f5f5f5;stroke-opacity:1"
       id="g1211"
       transform="translate(-0.00295818)" />
    <rect
       ry="2.7407527"
       rx="2.8107207"
       transform="matrix(0,1,-0.85853045,-0.51276258,0,0)"
       y="183.7719"
       x="178.47134"
       height="21.098299"
       width="18.738138"
       id="rect1657"
       style="fill:url(#linearGradient1687);fill-opacity:1;fill-rule:nonzero;stroke:none;stroke-width:0.18503441"
       inkscape:export-filename="/Users/bmillar/Documents/Design/icons/ellipsis-logonotext-16.png"
       inkscape:export-xdpi="2.2"
       inkscape:export-ydpi="2.2" />
    <rect
       ry="2.7407527"
       rx="2.8107207"
       transform="matrix(0,-1,0.85853045,0.51276258,0,0)"
       style="fill:url(#linearGradient1689);fill-opacity:1;fill-rule:nonzero;stroke:none;stroke-width:0.18503441"
       id="rect1667"
       width="18.738138"
       height="21.098299"
       x="-185.62102"
       y="-182.27014"
       inkscape:export-filename="/Users/bmillar/Documents/Design/icons/ellipsis-logonotext-16.png"
       inkscape:export-xdpi="2.2"
       inkscape:export-ydpi="2.2" />
    <rect
       inkscape:export-ydpi="2.2"
       inkscape:export-xdpi="2.2"
       inkscape:export-filename="/Users/bmillar/Documents/Design/icons/ellipsis-logonotext-16.png"
       y="-159.6701"
       x="-174.03256"
       height="21.098299"
       width="18.738138"
       id="rect1677"
       style="fill:url(#linearGradient1691);fill-opacity:1;fill-rule:nonzero;stroke:none;stroke-width:0.18503441"
       transform="matrix(0,-1,0.85853045,0.51276258,0,0)"
       rx="2.8107207"
       ry="2.7407527" />
    <rect
       ry="2.7407527"
       rx="2.8107207"
       transform="matrix(0,-1,0.85853045,0.51276258,0,0)"
       style="fill:url(#linearGradient1931);fill-opacity:1;fill-rule:nonzero;stroke:none;stroke-width:0.18503441"
       id="rect1333-0"
       width="18.738138"
       height="21.098299"
       x="-162.44411"
       y="-137.07007"
       inkscape:export-filename="/Users/bmillar/Documents/Design/icons/ellipsis-logonotext-16.png"
       inkscape:export-xdpi="2.2"
       inkscape:export-ydpi="2.2" />
    <rect
       ry="2.7407527"
       rx="2.8107207"
       transform="matrix(0,1,-0.85853045,-0.51276258,0,0)"
       y="115.97175"
       x="82.729118"
       height="21.098299"
       width="18.738138"
       id="rect1361-4"
       style="fill:url(#linearGradient1933);fill-opacity:1;fill-rule:nonzero;stroke:none;stroke-width:0.18503441"
       inkscape:export-filename="/Users/bmillar/Documents/Design/icons/ellipsis-logonotext-16.png"
       inkscape:export-xdpi="2.2"
       inkscape:export-ydpi="2.2" />
    <path
       style="opacity:1;fill:#f5f5f5;fill-opacity:1;stroke:none;stroke-width:0.34999999;stroke-miterlimit:4;stroke-dasharray:none;stroke-dashoffset:0;stroke-opacity:1"
       d="m -114.46295,18.246073 c -0.48867,2.3e-4 -0.81459,0.12233 -1.09451,0.40462 -0.25111,0.25326 -0.36021,0.71038 -0.36483,1.04645 -0.004,0.28586 0.008,0.73163 0.44235,1.32757 0.0388,4.4e-4 0.0662,0.002 0.10542,0.002 0.30884,0.002 0.62675,-9.1e-4 0.88263,-0.0134 0.12795,-0.006 0.2412,-0.0141 0.3266,-0.0253 0.0854,-0.0112 0.14918,-0.034 0.14417,-0.0315 -0.013,0.007 0.0605,-0.0694 0.11163,-0.20671 0.0511,-0.13726 0.0988,-0.3207 0.14831,-0.50229 0.0495,-0.1816 0.0991,-0.36241 0.16381,-0.5116 0.0324,-0.0746 0.069,-0.14087 0.12144,-0.20102 0.0524,-0.0601 0.13536,-0.11937 0.23823,-0.11937 0.0753,0 0.14525,0.0415 0.18345,0.0842 0.0382,0.0427 0.0575,0.0858 0.0744,0.13074 0.0338,0.09 0.0533,0.19385 0.0682,0.31264 0.0297,0.23759 0.039,0.53636 0.0491,0.83561 0.0102,0.29925 0.0197,0.59858 0.0429,0.8108 0.007,0.0611 0.0163,0.0916 0.0253,0.13488 0.026,-0.0422 0.0531,-0.09 0.0822,-0.15658 0.0757,-0.17346 0.12722,-0.39839 0.3359,-0.53124 0.0801,-0.051 0.14397,-0.0567 0.23047,-0.0703 0.0865,-0.0135 0.18857,-0.024 0.30283,-0.031 0.22852,-0.0141 0.50447,-0.0181 0.77308,-0.0176 0.17222,3.1e-4 0.3134,0.004 0.46353,0.007 0.36451,-0.54525 0.37784,-0.95787 0.37414,-1.22731 -0.005,-0.33608 -0.11372,-0.79319 -0.36483,-1.04645 -0.2799,-0.28229 -0.60582,-0.40439 -1.09451,-0.40463 -0.58082,7.5e-4 -1.38596,0.67387 -1.38596,0.67387 0,0 -0.80462,-0.67314 -1.38545,-0.67387 z m 1.18443,1.64227 c -0.0474,0.11224 -0.0969,0.27589 -0.1447,0.45114 -0.049,0.17982 -0.0975,0.36833 -0.15813,0.53123 -0.0606,0.1629 -0.11549,0.31423 -0.28163,0.39843 -0.0815,0.0413 -0.15503,0.0514 -0.2558,0.0646 -0.10077,0.0132 -0.22124,0.0224 -0.35502,0.0289 -0.21411,0.0105 -0.46458,0.0135 -0.71572,0.0134 1.26206,1.36822 2.11202,1.99161 2.11202,1.99161 0,0 0.8607,-0.62957 2.1363,-2.01642 0.0258,-0.028 0.0443,-0.0537 0.0682,-0.0811 -0.0714,-7.8e-4 -0.12526,-0.003 -0.19895,-0.003 -0.26452,-4.7e-4 -0.53454,0.004 -0.74983,0.0176 -0.10765,0.007 -0.2027,0.0166 -0.2713,0.0274 -0.0686,0.0107 -0.11762,0.0333 -0.0961,0.0196 -0.0258,0.0165 -0.12118,0.18898 -0.20308,0.37672 -0.041,0.0939 -0.0835,0.19123 -0.15038,0.27751 -0.0669,0.0863 -0.17666,0.17001 -0.3142,0.17001 -0.0791,0 -0.15041,-0.0484 -0.18551,-0.092 -0.0351,-0.0436 -0.0519,-0.0865 -0.0667,-0.13074 -0.0296,-0.0885 -0.0455,-0.18838 -0.0584,-0.30644 -0.0257,-0.23613 -0.0349,-0.53551 -0.045,-0.83406 -0.0101,-0.29855 -0.0206,-0.5959 -0.047,-0.80667 -0.006,-0.0443 -0.0121,-0.0624 -0.0191,-0.0977 z"
       id="path1367-78"
       inkscape:connector-curvature="0" />
    <rect
       ry="2.7407527"
       rx="2.8107207"
       transform="matrix(0,-1,0.85853045,0.51276258,0,0)"
       style="fill:url(#linearGradient2226);fill-opacity:1;fill-rule:nonzero;stroke:none;stroke-width:0.18503441"
       id="rect1369-38"
       width="18.738138"
       height="21.098299"
       x="-121.7929"
       y="-137.07007"
       inkscape:export-filename="/Users/bmillar/Documents/Design/icons/ellipsis-logonotext-16.png"
       inkscape:export-xdpi="2.2"
       inkscape:export-ydpi="2.2" />
    <path
       style="opacity:1;fill:#f5f5f5;fill-opacity:1;stroke:none;stroke-width:0.28077051;stroke-miterlimit:4;stroke-dasharray:none;stroke-dashoffset:0;stroke-opacity:1"
       d="m -113.7561,38.353931 c -0.59849,-1e-5 -1.14033,0.24294 -1.53259,0.63508 -0.0491,0.0491 -0.0959,0.10019 -0.14012,0.1538 -0.30922,0.3747 -0.49496,0.85501 -0.49496,1.37879 -1.4e-4,0.12568 0.0104,0.25024 0.0323,0.37434 0.0253,0.16257 0.0692,0.306 0.14012,0.45227 0.0837,0.18615 0.20066,0.37396 0.36355,0.56628 0.40433,0.47735 1.62255,1.53134 1.62255,1.53134 0,0 0.009,-0.008 0.009,-0.008 3.5e-4,3e-4 0.01,0.008 0.01,0.008 0,0 1.21823,-1.05399 1.62255,-1.53134 0.16289,-0.19232 0.27989,-0.38013 0.36356,-0.56628 0.0709,-0.14627 0.11485,-0.2897 0.14012,-0.45227 0.0219,-0.1241 0.0325,-0.24866 0.0323,-0.37434 0,-0.74814 -0.37896,-1.40792 -0.95553,-1.79748 0,0 -4.1e-4,0 -4.1e-4,0 -0.17292,-0.11679 -0.36359,-0.20945 -0.56711,-0.27278 0,0 -4.1e-4,0 -4.1e-4,0 -0.0678,-0.0211 -0.13686,-0.0391 -0.20728,-0.0535 0,0 -4.1e-4,0 -4.1e-4,0 -0.0704,-0.0144 -0.14201,-0.0254 -0.21474,-0.0327 0,0 -4.2e-4,0 -4.2e-4,0 -0.0728,-0.007 -0.14695,-0.0112 -0.22178,-0.0112 z m 4.1e-4,1.25815 a 0.87101623,0.87101623 0 0 1 0.87098,0.87097 0.87101623,0.87101623 0 0 1 -0.87098,0.87097 0.87101623,0.87101623 0 0 1 -0.87137,-0.87097 0.87101623,0.87101623 0 0 1 0.87137,-0.87097 z"
       id="path1371-1"
       inkscape:connector-curvature="0" />
    <rect
       inkscape:export-ydpi="2.2"
       inkscape:export-xdpi="2.2"
       inkscape:export-filename="/Users/bmillar/Documents/Design/icons/ellipsis-logonotext-16.png"
       y="-137.07007"
       x="-142.11848"
       height="21.098299"
       width="18.738138"
       id="rect1377-4"
       style="fill:url(#linearGradient1937);fill-opacity:1;fill-rule:nonzero;stroke:none;stroke-width:0.18503441"
       transform="matrix(0,-1,0.85853045,0.51276258,0,0)"
       rx="2.8107207"
       ry="2.7407527" />
    <path
       style="opacity:1;fill:#f5f5f5;fill-opacity:1;stroke:none;stroke-width:0.28077051;stroke-miterlimit:4;stroke-dasharray:none;stroke-dashoffset:0;stroke-opacity:1"
       d="m -114.77866,61.117907 c -0.16289,0.19232 -0.27959,0.38022 -0.36329,0.56637 -0.0709,0.14628 -0.11474,0.28961 -0.14004,0.45217 -0.0219,0.1241 -0.0327,0.24898 -0.0326,0.37466 0,0.52378 0.18584,1.00402 0.49506,1.37872 0.0442,0.0536 0.0909,0.10438 0.14005,0.15348 0.39226,0.39214 0.93423,0.63511 1.53272,0.63511 0.0748,0 0.14889,-0.004 0.22169,-0.0108 h 5.3e-4 c 0.0727,-0.007 0.14457,-0.0187 0.21497,-0.0331 h 5.3e-4 c 0.0704,-0.0144 0.13942,-0.0322 0.20722,-0.0532 h 5.3e-4 c 0.20352,-0.0633 0.39398,-0.15607 0.56689,-0.27286 h 5.3e-4 c 0.57657,-0.38956 0.9555,-1.04916 0.9555,-1.7973 2e-4,-0.12567 -0.0107,-0.25056 -0.0326,-0.37466 -0.0253,-0.16256 -0.0691,-0.30589 -0.14004,-0.45216 -0.0837,-0.18615 -0.20039,-0.37406 -0.36329,-0.56638 -0.0263,-0.031 -0.11128,-0.16446 -0.14388,-0.19991 -0.008,0.80033 -0.87362,1.47473 -1.32217,0.89858 -0.0981,-0.13738 -0.1776,-0.26225 -0.11369,-0.47439 0.0639,-0.21215 0.50574,-0.88045 0.45503,-1.39574 -0.0507,-0.5153 -0.30587,-0.62509 -0.63741,-0.92667 -0.0747,0.73005 -0.92077,1.58534 -1.50228,2.09813 z"
       id="path1379-3"
       inkscape:connector-curvature="0"
       sodipodi:nodetypes="ccccccccccccccccccccczzccc" />
    <path
       sodipodi:nodetypes="zzzzzzz"
       inkscape:connector-curvature="0"
       id="path2267"
       d="m -115.04107,80.752602 c 0.03,0.153448 1.48043,0.719909 1.53335,0.831891 0.0529,0.111981 -0.58785,2.247825 -0.49152,2.301352 0.0964,0.05353 1.91476,-2.429488 1.88556,-2.531747 -0.0292,-0.102258 -1.25276,-0.697986 -1.32242,-0.831891 -0.0696,-0.133905 0.37935,-2.238493 0.28059,-2.300963 -0.0988,-0.06247 -1.91555,2.37791 -1.88556,2.531358 z"
       style="color:#000000;font-style:normal;font-variant:normal;font-weight:normal;font-stretch:normal;font-size:medium;line-height:normal;font-family:sans-serif;font-variant-ligatures:normal;font-variant-position:normal;font-variant-caps:normal;font-variant-numeric:normal;font-variant-alternates:normal;font-feature-settings:normal;text-indent:0;text-align:start;text-decoration:none;text-decoration-line:none;text-decoration-style:solid;text-decoration-color:#000000;letter-spacing:normal;word-spacing:normal;text-transform:none;writing-mode:lr-tb;direction:ltr;text-orientation:mixed;dominant-baseline:auto;baseline-shift:baseline;text-anchor:start;white-space:normal;shape-padding:0;clip-rule:nonzero;display:inline;overflow:visible;visibility:visible;opacity:1;isolation:auto;mix-blend-mode:normal;color-interpolation:sRGB;color-interpolation-filters:linearRGB;solid-color:#000000;solid-opacity:1;vector-effect:none;fill:#f5f5f5;fill-opacity:1;fill-rule:nonzero;stroke:none;stroke-width:0.09464496px;stroke-linecap:butt;stroke-linejoin:miter;stroke-miterlimit:4;stroke-dasharray:none;stroke-dashoffset:0;stroke-opacity:1;color-rendering:auto;image-rendering:auto;shape-rendering:auto;text-rendering:auto;enable-background:accumulate" />
    <g
       id="g2319"
       transform="matrix(0.4080463,0,0,0.4080463,-105.11172,49.688752)"
       style="fill:#f5f5f5;fill-opacity:1">
      <path
         sodipodi:nodetypes="ccszzcczzcccz"
         inkscape:connector-curvature="0"
         id="path2307"
         d="m -68.810048,74.6032 c 0.189642,0.05999 0.368164,0.170978 0.527319,0.336106 0.848831,0.880668 0.62508,1.994053 0.05725,3.09539 -0.422635,0.819718 -1.427619,1.596529 -1.668774,1.853223 -0.241154,0.256691 -2.018504,-0.487231 -2.000424,-0.800707 0.01807,-0.313479 -0.10468,-1.106522 0.601254,-2.665724 0.626285,-1.383286 1.661707,-2.078568 2.483379,-1.818288 z m -3.504826,5.932442 c 0.08955,-0.212154 1.919182,0.553621 1.925729,0.771125 0.0065,0.217499 0.08122,0.861458 -0.04061,1.256384 -0.294224,0.951662 -0.766304,1.54608 -1.524212,1.312126 -0.758005,-0.234313 -1.133948,-1.195939 -0.839685,-2.147852 0.107293,-0.346159 0.389245,-0.979627 0.478782,-1.191783 z"
         style="opacity:1;fill:#f5f5f5;fill-opacity:1;stroke:none;stroke-width:1.29999995;stroke-linecap:round;stroke-miterlimit:4;stroke-dasharray:none;stroke-dashoffset:0;stroke-opacity:1" />
      <path
         style="opacity:1;fill:#f5f5f5;fill-opacity:1;stroke:none;stroke-width:1.29999995;stroke-linecap:round;stroke-miterlimit:4;stroke-dasharray:none;stroke-dashoffset:0;stroke-opacity:1"
         d="m -63.456925,72.761233 c -0.190408,-0.0575 -0.400423,-0.06663 -0.625001,-0.02013 -1.197749,0.247972 -1.641383,1.29338 -1.794169,2.523029 -0.113721,0.915219 0.277526,2.123672 0.33174,2.471678 0.05422,0.348004 1.941308,0.736936 2.103295,0.46795 0.161994,-0.268987 0.710892,-0.854392 1.008072,-2.539958 0.263652,-1.495393 -0.198731,-2.653718 -1.023937,-2.902567 z m -0.454686,6.875386 c 0.04581,-0.225676 -1.896783,-0.626078 -2.024938,-0.450216 -0.128149,0.175861 -0.553218,0.665325 -0.675524,1.060103 -0.294188,0.951673 -0.239934,1.708806 0.517772,1.943401 0.757993,0.234354 1.611046,-0.347329 1.905344,-1.299232 0.106784,-0.346315 0.231528,-1.028383 0.277346,-1.254056 z"
         id="path2315"
         inkscape:connector-curvature="0"
         sodipodi:nodetypes="ccszzcczzcccz" />
    </g>
    <path
       style="opacity:1;fill:#f5f5f5;fill-opacity:1;stroke:none;stroke-width:0.81094748;stroke-linecap:round;stroke-miterlimit:4;stroke-dasharray:none;stroke-dashoffset:0;stroke-opacity:1"
       d="m -151.48595,79.242887 v 1.081198 h 1.08119 v -1.081198 z m 1.08119,1.081198 h -2.16239 v 1.081197 h 1.0812 z m -1.08119,1.081197 h -2.16239 v 1.081477 h 1.08119 z m -1.0812,1.081477 h -2.16267 v 1.081197 h 1.08148 z"
       id="rect2336"
       inkscape:connector-curvature="0"
       sodipodi:nodetypes="cccccccccccccccccscc" />
    <g
       id="g2835"
       transform="rotate(90,-182.32909,84.063156)">
      <rect
         rx="0.2"
         ry="0.2"
         y="70.687584"
         x="-186.3996"
         height="4.75"
         width="3"
         id="rect2759"
         style="opacity:1;fill:none;fill-opacity:1;stroke:#f5f5f5;stroke-width:0.5;stroke-linecap:round;stroke-miterlimit:4;stroke-dasharray:none;stroke-dashoffset:0;stroke-opacity:1" />
      <rect
         ry="0.2"
         rx="0.2"
         y="69.93866"
         x="-185.3996"
         height="1"
         width="1"
         id="rect2761"
         style="opacity:1;fill:#f5f5f5;fill-opacity:1;stroke:none;stroke-width:1.5;stroke-linecap:round;stroke-miterlimit:4;stroke-dasharray:none;stroke-dashoffset:0;stroke-opacity:1" />
      <rect
         ry="0.2"
         rx="0.2"
         y="71.433701"
         x="-185.65129"
         height="0.75"
         width="1.5"
         id="rect2763"
         style="opacity:1;fill:#f5f5f5;fill-opacity:1;stroke:none;stroke-width:1.5;stroke-linecap:round;stroke-miterlimit:4;stroke-dasharray:none;stroke-dashoffset:0;stroke-opacity:1" />
      <rect
         style="opacity:1;fill:#f5f5f5;fill-opacity:1;stroke:none;stroke-width:1.5;stroke-linecap:round;stroke-miterlimit:4;stroke-dasharray:none;stroke-dashoffset:0;stroke-opacity:1"
         id="rect2826"
         width="1.5"
         height="0.75"
         x="-185.65129"
         y="72.683701"
         rx="0.2"
         ry="0.2" />
      <rect
         ry="0.2"
         rx="0.2"
         y="73.933701"
         x="-185.65129"
         height="0.75"
         width="1.5"
         id="rect2828"
         style="opacity:1;fill:#f5f5f5;fill-opacity:1;stroke:none;stroke-width:1.5;stroke-linecap:round;stroke-miterlimit:4;stroke-dasharray:none;stroke-dashoffset:0;stroke-opacity:1" />
    </g>
  </g>
</svg>
